<svg width="238" height="238" viewBox="0 0 238 238" fill="none" xmlns="http://www.w3.org/2000/svg">
<rect width="238" height="238" fill="#E5E5E5"/>
<g clip-path="url(#clip0)">
<rect x="2" y="2" width="234" height="234" fill="white"/>
<path d="M31.268 66.144H30.584C30.68 65.064 31.316 61.896 32.492 56.64C33.668 51.36 34.4 47.412 34.688 44.796C34.688 44.412 34.556 43.956 34.292 43.428C34.052 42.876 33.8 42.432 33.536 42.096L33.176 41.592L33.284 41.052C34.628 40.644 36.944 40.44 40.232 40.44C40.544 41.016 40.7 41.844 40.7 42.924C40.7 43.98 40.1 46.98 38.9 51.924H39.08C41.216 51.924 42.74 51.12 43.652 49.512C44.588 47.88 45.284 45.144 45.74 41.304C47.444 40.728 49.232 40.44 51.104 40.44C51.152 40.608 51.164 41.016 51.14 41.664C51.14 42.312 51.02 43.152 50.78 44.184C50.54 45.192 50.18 46.26 49.7 47.388C49.244 48.516 48.56 49.584 47.648 50.592C46.76 51.576 45.728 52.368 44.552 52.968C45.944 57.72 47.144 60.816 48.152 62.256C48.584 62.856 48.92 63.156 49.16 63.156C49.592 63.156 50.264 62.94 51.176 62.508L51.608 62.292L52.436 63.624C51.548 64.44 50.516 65.112 49.34 65.64C48.188 66.168 47.096 66.432 46.064 66.432C45.032 66.432 44.216 66.024 43.616 65.208C43.04 64.392 42.548 63.384 42.14 62.184C41.756 60.96 41.348 59.52 40.916 57.864C40.484 56.208 40.196 54.96 40.052 54.12C39.836 54.144 39.272 54.156 38.36 54.156C36.944 60.156 36.236 63.912 36.236 65.424C35.3 65.904 33.644 66.144 31.268 66.144ZM60.3836 52.284C60.3836 53.292 60.0596 55.032 59.4116 57.504C58.7636 59.952 58.4396 61.56 58.4396 62.328C58.4396 63.072 58.5476 63.444 58.7636 63.444C58.9076 63.444 59.4596 63.216 60.4196 62.76L60.8516 62.544L61.4636 63.804C61.2476 63.996 60.9596 64.236 60.5996 64.524C60.2396 64.812 59.5676 65.208 58.5836 65.712C57.5996 66.192 56.6876 66.432 55.8476 66.432C55.0076 66.432 54.3476 66.18 53.8676 65.676C53.3876 65.148 53.1476 64.452 53.1476 63.588C53.1476 62.7 53.4476 61.14 54.0476 58.908C54.6476 56.652 54.9476 55.188 54.9476 54.516C54.9476 53.508 54.6356 52.56 54.0116 51.672L53.6876 51.24L53.7236 50.772C54.9956 50.412 57.0596 50.232 59.9156 50.232C60.2276 50.592 60.3836 51.276 60.3836 52.284ZM56.2796 46.308C55.7996 45.828 55.5596 45.192 55.5596 44.4C55.5596 43.608 55.8836 42.912 56.5316 42.312C57.2036 41.712 57.9716 41.412 58.8356 41.412C59.6996 41.412 60.3716 41.652 60.8516 42.132C61.3316 42.612 61.5716 43.248 61.5716 44.04C61.5716 44.808 61.2236 45.492 60.5276 46.092C59.8556 46.692 59.0996 46.992 58.2596 46.992C57.4196 46.992 56.7596 46.764 56.2796 46.308ZM63.7122 66.108H63.0282C63.0282 64.98 63.3642 62.82 64.0362 59.628C64.7322 56.436 65.0802 54.624 65.0802 54.192C65.0802 53.4 64.7442 52.56 64.0722 51.672L63.7482 51.24L63.7842 50.772C65.0802 50.412 67.1562 50.232 70.0122 50.232C70.3242 50.64 70.4922 51.384 70.5162 52.464C72.6042 50.856 74.3682 50.052 75.8082 50.052C76.6722 50.052 77.3562 50.352 77.8602 50.952C78.3882 51.552 78.6522 52.308 78.6522 53.22C78.6522 54.108 78.3762 55.656 77.8242 57.864C77.2722 60.072 76.9962 61.56 76.9962 62.328C76.9962 63.072 77.0922 63.444 77.2842 63.444C77.4282 63.444 77.9322 63.216 78.7962 62.76L79.2282 62.544L79.8762 63.804C79.6602 63.996 79.3722 64.236 79.0122 64.524C78.6522 64.812 77.9802 65.208 76.9962 65.712C76.0362 66.192 75.1722 66.432 74.4042 66.432C72.6522 66.432 71.7762 65.436 71.7762 63.444C71.7762 62.604 72.0402 61.056 72.5682 58.8C73.1202 56.544 73.3962 55.092 73.3962 54.444C73.3962 53.796 73.1922 53.472 72.7842 53.472C72.0882 53.472 71.2362 53.772 70.2282 54.372C70.1562 54.78 69.9162 55.86 69.5082 57.612C68.6682 61.38 68.2482 64.044 68.2482 65.604C67.4082 65.94 65.8962 66.108 63.7122 66.108ZM85.0894 42.24C85.0894 41.448 85.0174 40.884 84.8734 40.548C86.7454 39.9 88.5094 39.576 90.1654 39.576C90.3814 39.792 90.4894 40.344 90.4894 41.232C90.4894 43.224 89.8294 47.04 88.5094 52.68C90.6454 50.928 92.7574 50.052 94.8454 50.052C95.7814 50.052 96.5734 50.34 97.2214 50.916C97.8694 51.492 98.1934 52.332 98.1934 53.436C98.1934 55.5 96.5014 57 93.1174 57.936C93.9094 60.432 94.6054 62.124 95.2054 63.012C95.4694 63.396 95.6614 63.588 95.7814 63.588C96.0454 63.588 96.5974 63.384 97.4374 62.976L97.8334 62.796L98.4094 64.02C97.8334 64.548 97.0294 65.088 95.9974 65.64C94.9894 66.168 94.0654 66.432 93.2254 66.432C91.3534 66.432 90.0454 64.728 89.3014 61.32C88.9654 59.856 88.7614 58.488 88.6894 57.216C90.2254 56.856 91.3654 56.424 92.1094 55.92C92.8774 55.392 93.2614 54.732 93.2614 53.94C93.2614 53.124 92.8534 52.716 92.0374 52.716C91.2214 52.716 89.8534 53.532 87.9334 55.164C86.7334 60.228 86.1334 63.696 86.1334 65.568C84.8134 65.952 83.0974 66.144 80.9854 66.144C80.9614 65.736 80.9494 65.376 80.9494 65.064C80.9494 64.032 81.6334 60.504 83.0014 54.48C84.3934 48.456 85.0894 44.376 85.0894 42.24ZM104.343 66.432C102.687 66.432 101.391 65.856 100.455 64.704C99.5187 63.528 99.0507 61.896 99.0507 59.808C99.0507 57.144 99.7587 54.852 101.175 52.932C102.615 51.012 104.595 50.052 107.115 50.052L108.411 50.124C108.819 49.908 109.275 49.8 109.779 49.8C111.675 49.8 112.623 51.588 112.623 55.164C113.607 55.116 114.603 54.984 115.611 54.768L116.187 54.624L116.403 56.028C115.611 56.364 114.543 56.664 113.199 56.928L112.479 57.072C112.023 59.592 111.099 61.788 109.707 63.66C108.315 65.508 106.527 66.432 104.343 66.432ZM106.287 63.336C107.295 63.336 108.195 62.688 108.987 61.392C109.803 60.096 110.367 58.728 110.679 57.288C108.111 57.288 106.827 56.328 106.827 54.408C106.827 53.64 106.983 52.92 107.295 52.248L107.475 51.888C107.379 51.84 107.259 51.816 107.115 51.816C106.971 51.816 106.863 51.84 106.791 51.888C106.191 52.272 105.627 53.172 105.099 54.588C104.571 56.004 104.307 57.624 104.307 59.448C104.307 62.04 104.967 63.336 106.287 63.336ZM131.212 66.432C129.82 66.432 128.38 66.204 126.892 65.748C125.644 66.06 124.552 66.216 123.616 66.216C122.704 66.216 122.08 66.192 121.744 66.144C121.912 64.728 122.632 61.14 123.904 55.38C125.2 49.596 125.848 46.32 125.848 45.552C125.848 44.76 125.68 44.076 125.344 43.5C125.032 42.924 124.72 42.504 124.408 42.24L123.904 41.844L124.012 41.304C124.636 41.136 125.908 40.956 127.828 40.764C129.772 40.548 131.464 40.44 132.904 40.44C136.24 40.44 138.76 41.184 140.464 42.672C142.192 44.136 143.056 46.524 143.056 49.836C143.056 52.548 142.6 55.152 141.688 57.648C140.8 60.12 139.432 62.208 137.584 63.912C135.736 65.592 133.612 66.432 131.212 66.432ZM133.768 42.708C133.144 42.708 132.436 42.78 131.644 42.924C131.404 45.468 130.72 49.188 129.592 54.084C128.488 58.956 127.84 62.064 127.648 63.408C128.224 63.696 129.016 63.84 130.024 63.84C131.032 63.84 131.98 63.444 132.868 62.652C133.78 61.836 134.512 60.828 135.064 59.628C135.616 58.428 136.096 57.084 136.504 55.596C137.2 52.932 137.548 50.508 137.548 48.324C137.548 46.14 137.26 44.664 136.684 43.896C136.108 43.104 135.136 42.708 133.768 42.708ZM144.159 59.772C144.159 56.772 145.059 54.408 146.859 52.68C148.683 50.928 150.747 50.052 153.051 50.052C154.467 50.052 155.631 50.4 156.543 51.096C157.455 51.792 157.911 52.728 157.911 53.904C157.911 55.056 157.611 56.028 157.011 56.82C156.435 57.612 155.727 58.224 154.887 58.656C153.183 59.496 151.623 60.024 150.207 60.24L149.343 60.348C149.511 62.604 150.435 63.732 152.115 63.732C152.691 63.732 153.303 63.588 153.951 63.3C154.599 63.012 155.103 62.724 155.463 62.436L156.003 62.004L156.867 63.156C156.675 63.42 156.291 63.768 155.715 64.2C155.139 64.632 154.599 64.992 154.095 65.28C152.703 66.048 151.179 66.432 149.523 66.432C147.867 66.432 146.559 65.844 145.599 64.668C144.639 63.492 144.159 61.86 144.159 59.772ZM149.307 58.584C150.531 58.368 151.503 57.852 152.223 57.036C152.943 56.22 153.303 55.164 153.303 53.868C153.303 52.572 152.919 51.924 152.151 51.924C151.239 51.924 150.531 52.704 150.027 54.264C149.547 55.8 149.307 57.24 149.307 58.584ZM170.157 61.284C170.157 62.796 169.485 64.032 168.141 64.992C166.821 65.952 165.309 66.432 163.605 66.432C161.901 66.432 160.545 66.072 159.537 65.352C158.553 64.632 158.061 63.996 158.061 63.444C158.061 63.108 158.481 62.568 159.321 61.824C160.161 61.056 160.869 60.588 161.445 60.42C162.645 61.308 163.629 62.712 164.397 64.632C165.285 64.56 165.729 64.14 165.729 63.372C165.729 62.268 164.757 60.708 162.813 58.692C160.869 56.652 159.897 55.032 159.897 53.832C159.897 52.632 160.437 51.708 161.517 51.06C162.597 50.388 163.893 50.052 165.405 50.052C166.941 50.052 168.093 50.328 168.861 50.88C169.629 51.408 170.013 52.14 170.013 53.076C170.013 53.988 169.281 55.26 167.817 56.892C167.985 57.06 168.201 57.288 168.465 57.576C168.729 57.84 169.077 58.356 169.509 59.124C169.941 59.892 170.157 60.612 170.157 61.284ZM166.701 55.632C167.709 54.768 168.213 53.916 168.213 53.076C168.213 52.236 167.637 51.816 166.485 51.816C165.933 51.816 165.477 51.936 165.117 52.176C164.757 52.392 164.577 52.644 164.577 52.932C164.577 53.46 165.105 54.204 166.161 55.164L166.701 55.632ZM179.282 52.284C179.282 53.292 178.958 55.032 178.31 57.504C177.662 59.952 177.338 61.56 177.338 62.328C177.338 63.072 177.446 63.444 177.662 63.444C177.806 63.444 178.358 63.216 179.318 62.76L179.75 62.544L180.362 63.804C180.146 63.996 179.858 64.236 179.498 64.524C179.138 64.812 178.466 65.208 177.482 65.712C176.498 66.192 175.586 66.432 174.746 66.432C173.906 66.432 173.246 66.18 172.766 65.676C172.286 65.148 172.046 64.452 172.046 63.588C172.046 62.7 172.346 61.14 172.946 58.908C173.546 56.652 173.846 55.188 173.846 54.516C173.846 53.508 173.534 52.56 172.91 51.672L172.586 51.24L172.622 50.772C173.894 50.412 175.958 50.232 178.814 50.232C179.126 50.592 179.282 51.276 179.282 52.284ZM175.178 46.308C174.698 45.828 174.458 45.192 174.458 44.4C174.458 43.608 174.782 42.912 175.43 42.312C176.102 41.712 176.87 41.412 177.734 41.412C178.598 41.412 179.27 41.652 179.75 42.132C180.23 42.612 180.47 43.248 180.47 44.04C180.47 44.808 180.122 45.492 179.426 46.092C178.754 46.692 177.998 46.992 177.158 46.992C176.318 46.992 175.658 46.764 175.178 46.308ZM186.175 69.888C185.383 70.368 184.987 70.836 184.987 71.292C184.987 71.748 185.239 71.976 185.743 71.976C186.271 71.976 186.859 71.724 187.507 71.22C188.155 70.74 188.695 69.948 189.127 68.844C187.975 69.06 186.991 69.408 186.175 69.888ZM196.867 50.304C196.963 50.4 197.011 50.616 197.011 50.952C197.011 51.264 196.987 51.612 196.939 51.996C196.891 52.356 196.807 53.184 196.687 54.48C196.567 55.776 196.447 56.904 196.327 57.864C195.103 68.664 191.815 74.064 186.463 74.064C185.599 74.064 184.807 73.836 184.087 73.38C183.391 72.924 183.043 72.336 183.043 71.616C183.043 70.656 183.631 69.78 184.807 68.988C185.983 68.196 187.567 67.584 189.559 67.152C189.559 67.128 189.631 66.792 189.775 66.144C189.919 65.496 190.015 64.968 190.063 64.56C188.623 65.616 187.267 66.144 185.995 66.144C184.747 66.144 183.715 65.652 182.899 64.668C182.107 63.684 181.711 62.112 181.711 59.952C181.711 57.12 182.347 54.768 183.619 52.896C184.891 51 186.571 50.052 188.659 50.052C189.835 50.052 190.999 50.34 192.151 50.916C193.375 50.484 194.695 50.268 196.111 50.268L196.867 50.304ZM190.279 52.176C189.247 52.176 188.431 53.016 187.831 54.696C187.231 56.352 186.931 58.2 186.931 60.24C186.931 62.256 187.387 63.264 188.299 63.264C188.899 63.264 189.607 63.036 190.423 62.58C191.095 58.548 191.575 55.224 191.863 52.608C191.191 52.32 190.663 52.176 190.279 52.176ZM199.275 66.108H198.591C198.591 64.98 198.927 62.82 199.599 59.628C200.295 56.436 200.643 54.624 200.643 54.192C200.643 53.4 200.307 52.56 199.635 51.672L199.311 51.24L199.347 50.772C200.643 50.412 202.719 50.232 205.575 50.232C205.887 50.64 206.055 51.384 206.079 52.464C208.167 50.856 209.931 50.052 211.371 50.052C212.235 50.052 212.919 50.352 213.423 50.952C213.951 51.552 214.215 52.308 214.215 53.22C214.215 54.108 213.939 55.656 213.387 57.864C212.835 60.072 212.559 61.56 212.559 62.328C212.559 63.072 212.655 63.444 212.847 63.444C212.991 63.444 213.495 63.216 214.359 62.76L214.791 62.544L215.439 63.804C215.223 63.996 214.935 64.236 214.575 64.524C214.215 64.812 213.543 65.208 212.559 65.712C211.599 66.192 210.735 66.432 209.967 66.432C208.215 66.432 207.339 65.436 207.339 63.444C207.339 62.604 207.603 61.056 208.131 58.8C208.683 56.544 208.959 55.092 208.959 54.444C208.959 53.796 208.755 53.472 208.347 53.472C207.651 53.472 206.799 53.772 205.791 54.372C205.719 54.78 205.479 55.86 205.071 57.612C204.231 61.38 203.811 64.044 203.811 65.604C202.971 65.94 201.459 66.108 199.275 66.108Z" fill="white"/>
<line x1="-25.2275" y1="261.742" x2="256.772" y2="-18.2577" stroke="black" stroke-width="12"/>
<line x1="-8.75736" y1="-9.24264" x2="252.243" y2="251.757" stroke="black" stroke-width="12"/>
</g>
<rect x="2" y="2" width="234" height="234" stroke="white" stroke-width="4"/>
<defs>
<clipPath id="clip0">
</clipPath>
</defs>
</svg>
